<?xml version="1.0" encoding="UTF-8"?>
<svg width="66px" height="66px" viewBox="0 0 66 66" version="1.1" xmlns="http://www.w3.org/2000/svg" xmlns:xlink="http://www.w3.org/1999/xlink">
    <!-- Generator: Sketch 53 (72520) - https://sketchapp.com -->
    <title>Icn/Reset</title>
    <desc>Created with Sketch.</desc>
    <g id="Icn/Reset" stroke="none" stroke-width="1" fill="none" fill-rule="evenodd">
        <g id="info">
            <circle id="Oval" fill="#FFFFFF" cx="33.5" cy="32.5" r="30.5"></circle>
            <path d="M59.863418,52.1561132 L57.7145507,50.6221289 C61.4077149,45.4516993 63.36,39.3570118 63.36,33 C63.36,16.2595899 49.7404101,2.64 33,2.64 C26.6429882,2.64 20.5483007,4.59228511 15.3778711,8.28544926 L13.8438868,6.13658199 C19.4648437,2.12115238 26.0886914,-2.06057393e-13 33,-2.06057393e-13 C51.1964062,-2.06057393e-13 66,14.8035937 66,33 C66,39.9113086 63.8788476,46.5351562 59.863418,52.1561132 Z M33,66 C14.8035937,66 -1.1155521e-12,51.1964062 -1.1155521e-12,33 C-1.1155521e-12,26.0886914 2.12244136,19.4648437 6.13787113,13.8438868 L8.28544926,15.3778711 C4.59228511,20.5483007 2.64,26.6416993 2.64,33 C2.64,49.7404101 16.2595899,63.36 33,63.36 C39.3570118,63.36 45.4516993,61.4077149 50.6221289,57.7145507 L52.1561132,59.863418 C46.5351562,63.8788476 39.9113086,66 33,66 Z" id="Combined-Shape" fill="#284664" fill-rule="nonzero"></path>
            <path d="M33,23.76 C30.0880077,23.76 27.72,21.3919923 27.72,18.48 C27.72,15.5680077 30.0880077,13.2 33,13.2 C35.9119923,13.2 38.28,15.5680077 38.28,18.48 C38.28,21.3919923 35.9119923,23.76 33,23.76 Z M33,15.84 C31.5440039,15.84 30.36,17.0240039 30.36,18.48 C30.36,19.9359961 31.5440039,21.12 33,21.12 C34.4559961,21.12 35.64,19.9359961 35.64,18.48 C35.64,17.0240039 34.4559961,15.84 33,15.84 Z" id="Shape" fill="#284664" fill-rule="nonzero"></path>
            <path d="M39.6,52.8 L26.4,52.8 L26.4,44.88 L29.04,44.88 L29.04,34.32 L26.4,34.32 L26.4,26.4 L36.96,26.4 L36.96,44.88 L39.6,44.88 L39.6,52.8 Z M29.04,50.16 L36.96,50.16 L36.96,47.52 L34.32,47.52 L34.32,29.04 L29.04,29.04 L29.04,31.68 L31.68,31.68 L31.68,47.52 L29.04,47.52 L29.04,50.16 Z" id="Shape" fill="#284664" fill-rule="nonzero"></path>
        </g>
    </g>
</svg>