<?xml version="1.0" encoding="UTF-8"?>
<svg width="60px" height="60px" viewBox="0 0 60 60" version="1.1" xmlns="http://www.w3.org/2000/svg" xmlns:xlink="http://www.w3.org/1999/xlink">
    <!-- Generator: Sketch 53 (72520) - https://sketchapp.com -->
    <title>Icn/SaveDraft</title>
    <desc>Created with Sketch.</desc>
    <g id="Icn/SaveDraft" stroke="none" stroke-width="1" fill="none" fill-rule="evenodd">
        <g id="resume" fill-rule="nonzero">
            <polygon id="Path" fill="#FACB9B" points="30.9677419 12.5806452 52.2580645 12.5806452 52.2580645 25.1612903 30.9677419 25.1612903"></polygon>
            <path d="M57.0967742,1.93548387 L47.4193548,1.93548387 L47.4193548,3.87096774 L57.0967742,3.87096774 C57.6307333,3.87096774 58.0645161,4.30475056 58.0645161,4.83870968 L58.0645161,57.0967742 C58.0645161,57.6307333 57.6307333,58.0645161 57.0967742,58.0645161 L20.3225806,58.0645161 C19.7886215,58.0645161 19.3548387,57.6307333 19.3548387,57.0967742 L19.3548387,25.1612903 L21.2903226,25.1612903 L21.2903226,56.1290323 L56.1290323,56.1290323 L56.1290323,5.80645161 L47.4647177,5.80645161 L47.4647177,7.74193548 L54.1935484,7.74193548 L54.1935484,54.1935484 L23.2258065,54.1935484 L23.2258065,25.1612903 L25.1612903,25.1612903 C27.296182,25.1612903 29.0322581,23.4252143 29.0322581,21.2903226 C29.0322581,19.1554309 27.296182,17.4193548 25.1612903,17.4193548 L23.2258065,17.4193548 L23.2258065,7.74193548 L30,7.74193548 L30,5.80645161 L21.2903226,5.80645161 L21.2903226,17.4193548 L19.3548387,17.4193548 L19.3548387,4.83870968 C19.3548387,4.30475056 19.7886215,3.87096774 20.3225806,3.87096774 L30,3.87096774 L30,1.93548387 L20.3225806,1.93548387 C18.7221207,1.93548387 17.4193548,3.23824972 17.4193548,4.83870968 L17.4193548,17.4193548 L14.1234564,17.4193548 C12.9454385,17.4193548 11.7830141,17.7279171 10.7614038,18.3124369 L5.54892266,21.2903226 L0,21.2903226 L0,38.7096774 L6.4807523,38.7096774 L10.5804247,41.4427923 C11.6970135,42.1879725 12.9969443,42.5806452 14.3379852,42.5806452 L17.4193548,42.5806452 L17.4193548,57.0967742 C17.4193548,58.6972342 18.7221207,60 20.3225806,60 L57.0967742,60 C58.6972342,60 60,58.6972342 60,57.0967742 L60,4.83870968 C60,3.23824972 58.6972342,1.93548387 57.0967742,1.93548387 Z M15.4153541,25.1612903 L17.4193548,25.1612903 L17.4193548,40.6451613 L14.3379852,40.6451613 C13.3801663,40.6451613 12.4521169,40.3644784 11.6544859,39.8324093 L7.0676348,36.7741935 L1.93548387,36.7741935 L1.93548387,23.2258065 L6.06398056,23.2258065 L11.7220577,19.9927546 C12.4521169,19.5755104 13.2823525,19.3548387 14.1234564,19.3548387 L25.1612903,19.3548387 C26.2287362,19.3548387 27.0967742,20.2228767 27.0967742,21.2903226 C27.0967742,22.3577684 26.2287362,23.2258065 25.1612903,23.2258065 L13.5483871,23.2258065 L13.5483871,24.1935484 C13.5483871,26.8614542 11.3775832,29.0322581 8.70967742,29.0322581 L8.70967742,30.9677419 C12.117093,30.9677419 14.9437689,28.4401777 15.4153541,25.1612903 Z" id="Shape" fill="#284664"></path>
            <polygon id="Path" fill="#284664" points="25.1612903 11.6129032 27.0967742 11.6129032 27.0967742 13.5483871 25.1612903 13.5483871"></polygon>
            <polygon id="Path" fill="#284664" points="29.0322581 11.6129032 52.2580645 11.6129032 52.2580645 13.5483871 29.0322581 13.5483871"></polygon>
            <polygon id="Path" fill="#284664" points="30.9677419 15.483871 52.2580645 15.483871 52.2580645 17.4193548 30.9677419 17.4193548"></polygon>
            <polygon id="Path" fill="#284664" points="30.9677419 19.3548387 52.2580645 19.3548387 52.2580645 21.2903226 30.9677419 21.2903226"></polygon>
            <polygon id="Path" fill="#284664" points="50.3225806 23.2258065 52.2580645 23.2258065 52.2580645 25.1612903 50.3225806 25.1612903"></polygon>
            <polygon id="Path" fill="#284664" points="30.9677419 23.2258065 48.3870968 23.2258065 48.3870968 25.1612903 30.9677419 25.1612903"></polygon>
            <path d="M45.483871,9.67741935 L31.9354839,9.67741935 C30.3350239,9.67741935 29.0322581,8.37465351 29.0322581,6.77419355 L29.0322581,2.90322581 C29.0322581,1.30276585 30.3350239,0 31.9354839,0 L45.483871,0 C47.0843309,0 48.3870968,1.30276585 48.3870968,2.90322581 L48.3870968,6.77419355 C48.3870968,8.37465351 47.0843309,9.67741935 45.483871,9.67741935 Z" id="Path" fill="#284664"></path>
            <polygon id="Path" fill="#F3F3F3" points="32.9032258 3.87096774 34.8387097 3.87096774 34.8387097 5.80645161 32.9032258 5.80645161"></polygon>
            <polygon id="Path" fill="#F3F3F3" points="42.5806452 3.87096774 44.516129 3.87096774 44.516129 5.80645161 42.5806452 5.80645161"></polygon>
            <g id="Group-4" transform="translate(31.000000, 28.000000)" fill="#C86478">
                <polygon id="Path" points="6.77419355 21.2903226 8.70967742 21.2903226 8.70967742 23.2258065 6.77419355 23.2258065"></polygon>
                <path d="M8.70967742,19.3548387 L6.77419355,19.3548387 L6.77419355,16.2290511 C6.77419355,14.8837575 7.71500129,13.6991243 9.01162427,13.4099358 C11.6776398,12.8159652 13.5861895,10.3975554 13.5483871,7.65971516 C13.5058594,4.60055444 10.8852067,1.97990177 7.82510081,1.93737399 C6.25063004,1.90760456 4.78058843,2.50819052 3.66588968,3.60871343 C2.55119081,4.70923645 1.93548387,6.17597032 1.93548387,7.74193548 C1.93548387,8.93507431 2.29555185,10.0828502 2.97694052,11.0595703 L1.38971141,12.1676538 C0.481035726,10.8648878 5.92415006e-13,9.33483496 5.92415006e-13,7.74193548 C5.92415006e-13,5.65335181 0.818894879,3.69565899 2.30594758,2.22987024 C3.76653859,0.789598065 5.69304435,3.00204306e-13 7.74004536,3.00204306e-13 C7.77784778,3.00204306e-13 7.81470508,0.000945 7.852035,0.000945 C12.0027406,0.05906625 15.4257497,3.48302044 15.483871,7.63278097 C15.5339591,11.2821321 12.9889113,14.5066784 9.43264863,15.2991116 C9.0135144,15.3917275 8.70967742,15.7839277 8.70967742,16.2290511 L8.70967742,19.3548387 Z" id="Path"></path>
            </g>
        </g>
    </g>
</svg>