<?xml version="1.0" encoding="utf-8"?>
<!-- Generator: Adobe Illustrator 23.0.6, SVG Export Plug-In . SVG Version: 6.00 Build 0)  -->
<svg version="1.1" id="Layer_1" xmlns="http://www.w3.org/2000/svg" xmlns:xlink="http://www.w3.org/1999/xlink" x="0px" y="0px"
	 viewBox="0 0 71 59" style="enable-background:new 0 0 71 59;" xml:space="preserve">
<style type="text/css">
	.st0{opacity:0.397;fill-rule:evenodd;clip-rule:evenodd;fill:#32B4C8;enable-background:new    ;}
	.st1{fill:#294563;}
</style>
<title>Share</title>
<desc>Created with Sketch.</desc>
<g id="Group-4">
	<path id="Rectangle" class="st0" d="M6,0h9c3.3,0,6,2.7,6,6v9c0,3.3-2.7,6-6,6H6c-3.3,0-6-2.7-6-6V6C0,2.7,2.7,0,6,0z"/>
	<path id="Rectangle-Copy-3" class="st0" d="M49,29h16c3.3,0,6,2.7,6,6v16c0,3.3-2.7,6-6,6H49c-3.3,0-6-2.7-6-6V35
		C43,31.7,45.7,29,49,29z"/>
</g>
<g>
	<g>
		<g>
			<rect x="27.1" y="8.4" class="st1" width="18.2" height="1.8"/>
		</g>
	</g>
	<g>
		<g>
			<path class="st1" d="M54,38c0-1.8-1.4-3.2-3.2-3.2H49V22.1h-1.8v12.8h-2.3c-1.8,0-3.2,1.4-3.2,3.2c0,0.9,0.4,1.7,1,2.3
				c-0.6,0.6-1,1.4-1,2.3c0,0.6,0.2,1.2,0.5,1.7c-1.1,0.5-1.9,1.6-1.9,2.9c0,0.5,0.1,1,0.3,1.4h-7.2c0-2.8-1.4-5.3-3.5-6.7
				c2.1-0.8,3.5-2.8,3.5-5.1c0-0.5-0.4-0.9-0.9-0.9h-7.3v-9.1h-1.8v9.1c-1.5,0-2.7,1.2-2.7,2.7v20.1h1.8V38.5c0-0.5,0.4-0.9,0.9-0.9
				h8.1c-0.4,1.6-1.8,2.7-3.5,2.7h-2.7c-0.5,0-0.9,0.4-0.9,0.9c0,0.5,0.4,0.9,0.9,0.9c3.5,0,6.4,2.9,6.4,6.4v0.9
				c0,0.5,0.4,0.9,0.9,0.9h5.3c-0.2,0.4-0.3,0.9-0.3,1.4c0,1.8,1.4,3.2,3.2,3.2v3.6h1.8v-3.6h3.6h0.5c1.8,0,3.2-1.4,3.2-3.2
				c0-0.5-0.1-1-0.3-1.4c1.7-0.1,3.1-1.5,3.1-3.2c0-0.6-0.2-1.2-0.5-1.7c1.1-0.5,1.9-1.6,1.9-2.9c0-0.9-0.4-1.7-1-2.3
				C53.7,39.7,54,38.9,54,38z M46.7,53.1h-0.5h-4.6h-0.9c-0.8,0-1.4-0.6-1.4-1.4s0.6-1.4,1.4-1.4h2.7h3.2c0.8,0,1.4,0.6,1.4,1.4
				S47.5,53.1,46.7,53.1z M49.5,48.5h-2.7h-3.2c-0.8,0-1.4-0.6-1.4-1.4s0.6-1.4,1.4-1.4h1.4h4.6c0.8,0,1.4,0.6,1.4,1.4
				S50.2,48.5,49.5,48.5z M50.8,44h-1.4h-4.6c-0.8,0-1.4-0.6-1.4-1.4s0.6-1.4,1.4-1.4h5.9c0.8,0,1.4,0.6,1.4,1.4S51.6,44,50.8,44z
				 M50.8,39.4h-5.9c-0.8,0-1.4-0.6-1.4-1.4c0-0.8,0.6-1.4,1.4-1.4h5.9c0.8,0,1.4,0.6,1.4,1.4C52.2,38.8,51.6,39.4,50.8,39.4z"/>
		</g>
	</g>
	<g>
		<g>
			<path class="st1" d="M22.6,15.4c0-0.3-0.1-0.5-0.4-0.7l-0.9-0.7c-0.2-1.1-1.2-2-2.4-2c-1.4,0-2.5,1.1-2.5,2.5
				c-0.7-0.1-1.4-0.4-2-0.8L14,13.5c-0.3-0.2-0.6-0.2-0.9,0c-0.3,0.2-0.5,0.5-0.5,0.8V15c0,1.1,0.3,2.1,0.9,3l-0.7,0.7
				c-0.3,0.3-0.3,0.7-0.2,1c0.1,0.3,0.5,0.6,0.8,0.6h4.4c1.8,0,3.2-1.3,3.4-3.1l1-1C22.5,16,22.6,15.7,22.6,15.4z M19.7,16.1
				c-0.2,0.2-0.3,0.4-0.3,0.6c0,0.9-0.7,1.6-1.6,1.6h-2.3c0.1-0.3,0.1-0.7-0.2-1c-0.4-0.4-0.7-1-0.9-1.6c0.9,0.4,1.8,0.6,2.8,0.6
				c0.5,0,0.9-0.4,0.9-0.9v-1c0-0.4,0.3-0.7,0.7-0.7s0.7,0.3,0.7,0.7c0,0.3,0.1,0.6,0.4,0.7l0.4,0.3L19.7,16.1z"/>
		</g>
	</g>
	<g>
		<g>
			<path class="st1" d="M39,19.3v-1.8h-2.7c-0.5,0-0.9,0.4-0.9,0.9v2.7h-1.8V23h1.8v3.6h1.8V23H39v-1.8h-1.8v-1.8H39z"/>
		</g>
	</g>
	<g>
		<g>
			<path class="st1" d="M41.7,13.9H30.8c-1.5,0-2.7,1.2-2.7,2.7v10.9c0,1.5,1.2,2.7,2.7,2.7h10.9c1.5,0,2.7-1.2,2.7-2.7V16.6
				C44.5,15.1,43.2,13.9,41.7,13.9z M42.6,27.5c0,0.5-0.4,0.9-0.9,0.9H30.8c-0.5,0-0.9-0.4-0.9-0.9V16.6c0-0.5,0.4-0.9,0.9-0.9h10.9
				c0.5,0,0.9,0.4,0.9,0.9V27.5z"/>
		</g>
	</g>
	<g>
		<g>
			<path class="st1" d="M22.6,8.4H11.6c-1.5,0-2.7,1.2-2.7,2.7v10.9c0,1.5,1.2,2.7,2.7,2.7h10.9c1.5,0,2.7-1.2,2.7-2.7V11.1
				C25.3,9.6,24.1,8.4,22.6,8.4z M23.5,22.1c0,0.5-0.4,0.9-0.9,0.9H11.6c-0.5,0-0.9-0.4-0.9-0.9V11.1c0-0.5,0.4-0.9,0.9-0.9h10.9
				c0.5,0,0.9,0.4,0.9,0.9V22.1z"/>
		</g>
	</g>
	<g>
		<g>
			<path class="st1" d="M60.9,3.8H49.9c-1.5,0-2.7,1.2-2.7,2.7v10.9c0,1.5,1.2,2.7,2.7,2.7h10.9c1.5,0,2.7-1.2,2.7-2.7V6.6
				C63.6,5.1,62.4,3.8,60.9,3.8z M61.8,17.5c0,0.5-0.4,0.9-0.9,0.9H49.9c-0.5,0-0.9-0.4-0.9-0.9v-4.6h1.9c0.4,2.1,2.3,3.6,4.5,3.6
				c2.2,0,4-1.6,4.5-3.6h1.9V17.5z M52.7,12c0-1.5,1.2-2.7,2.7-2.7s2.7,1.2,2.7,2.7s-1.2,2.7-2.7,2.7S52.7,13.5,52.7,12z M61.8,11.1
				h-1.9c-0.4-2.1-2.3-3.6-4.5-3.6c-2.2,0-4,1.6-4.5,3.6H49V6.6c0-0.5,0.4-0.9,0.9-0.9h10.9c0.5,0,0.9,0.4,0.9,0.9V11.1z"/>
		</g>
	</g>
	<g>
		<g>
			<rect x="35.3" y="41.2" class="st1" width="1.8" height="1.8"/>
		</g>
	</g>
</g>
</svg>
