<svg xmlns="http://www.w3.org/2000/svg" xmlns:xlink="http://www.w3.org/1999/xlink" width="19" height="21" viewBox="0 0 19 21">
    <defs>
        <path id="prefix__a" d="M0 0L19 0 19 21 0 21z"/>
    </defs>
    <g fill="none" fill-rule="evenodd">
        <mask id="prefix__b" fill="#fff">
            <use xlink:href="#prefix__a"/>
        </mask>
        <path fill="#7A7A7A" d="M18.208 18.264c0-1.088-.878-1.964-1.967-1.963-1.079 0-1.961.882-1.962 1.96-.001 1.075.882 1.954 1.964 1.955 1.085 0 1.965-.873 1.965-1.952M4.716 10.26c0-1.09-.875-1.964-1.966-1.962-1.082 0-1.962.878-1.963 1.956 0 1.076.883 1.957 1.963 1.958 1.083.002 1.966-.874 1.966-1.952m9.152-7.523c-.001 1.08.877 1.96 1.958 1.962 1.088.003 1.969-.872 1.972-1.96.003-1.074-.88-1.953-1.964-1.954-1.082-.002-1.964.874-1.966 1.952M4.78 8.411l1.132-.626c2.4-1.33 4.799-2.66 7.2-3.986.107-.06.143-.103.1-.237-.56-1.73.73-3.525 2.554-3.561 1.586-.032 2.867 1.25 2.818 2.822-.035 1.134-.775 2.14-1.843 2.507-1.092.375-2.289.044-3.024-.836l-.079-.092-8.404 4.657c.213.462.303.938.26 1.437-.045.5-.218.951-.512 1.37l8.826 5.098c.022-.032.043-.06.061-.09.61-1.021 1.77-1.538 2.93-1.302 1.146.232 2.018 1.168 2.176 2.336.224 1.65-1.11 3.132-2.783 3.091-1.555-.038-2.754-1.308-2.697-2.857.004-.09 0-.182.027-.265.041-.13-.017-.183-.12-.243-2.954-1.702-5.906-3.407-8.856-5.115-.095-.055-.158-.06-.256.006-1.68 1.129-3.963.122-4.26-1.875-.174-1.162.43-2.319 1.485-2.846 1.06-.53 2.34-.328 3.177.504.031.03.058.067.088.103" mask="url(#prefix__b)"/>
    </g>
</svg>
